<svg width="688" height="116" viewBox="0 0 688 116" fill="none" xmlns="http://www.w3.org/2000/svg">
<rect x="4.5" y="4.5" width="679" height="107" fill="#FBC571" stroke="#461C20" stroke-width="9"/>
<path d="M111.248 40.096C111.248 37.6 110.96 37.312 108.464 37.312H105.68V76.48H108.464C110.96 76.48 111.248 76.096 111.248 73.6C111.248 71.104 111.536 70.816 114.032 70.816H116.816V42.88H114.032C111.536 42.88 111.248 42.592 111.248 40.096ZM88.88 28.864V26.08H111.248V31.744H122.48V42.88H128.048V70.816H122.48V82.048H111.248V87.616H88.88V84.832C88.88 82.336 89.168 82.048 91.664 82.048H94.448V31.744H91.664C89.168 31.744 88.88 31.36 88.88 28.864ZM156.154 52.192H145.018V63.424H156.154V52.192ZM139.354 49.408V46.624H161.722V49.408C161.722 51.904 162.01 52.192 164.506 52.192H167.386V68.992H145.018V74.56H161.722V80.128H139.354V77.344C139.354 74.848 139.066 74.56 136.57 74.56H133.786V52.192H136.57C139.066 52.192 139.354 51.904 139.354 49.408ZM173.161 71.776V49.408H175.945C178.441 49.408 178.729 49.696 178.729 52.192C178.729 54.688 179.017 54.976 181.513 54.976H184.393V66.208H189.961V54.976H192.745C195.241 54.976 195.529 54.688 195.529 52.192C195.529 49.696 195.817 49.408 198.313 49.408H201.097V71.776H198.313C195.817 71.776 195.529 72.064 195.529 74.56C195.529 77.056 195.241 77.344 192.745 77.344C190.249 77.344 189.961 77.632 189.961 80.128C189.961 82.624 189.673 83.008 187.177 83.008C184.681 83.008 184.393 82.624 184.393 80.128C184.393 77.632 184.009 77.344 181.513 77.344C179.017 77.344 178.729 77.056 178.729 74.56C178.729 72.064 178.441 71.776 175.945 71.776H173.161ZM229.186 52.192H218.049V63.424H229.186V52.192ZM212.386 49.408V46.624H234.754V49.408C234.754 51.904 235.042 52.192 237.538 52.192H240.418V68.992H218.049V74.56H234.754V80.128H212.386V77.344C212.386 74.848 212.098 74.56 209.602 74.56H206.818V52.192H209.602C212.098 52.192 212.386 51.904 212.386 49.408ZM246.193 29.824V27.04H257.424V29.824C257.424 32.32 257.713 32.608 260.209 32.608H262.993V77.344H265.777C268.273 77.344 268.561 77.632 268.561 80.128V83.008H257.424V80.128C257.424 77.632 257.041 77.344 254.545 77.344H251.761V32.608H248.977C246.48 32.608 246.193 32.32 246.193 29.824ZM291.118 54.112H285.549V76.48H291.118V54.112ZM279.886 51.232V48.448H296.686V51.232C296.686 53.728 296.974 54.112 299.47 54.112H302.254V76.48H299.47C296.974 76.48 296.686 76.768 296.686 79.264V82.048H279.886V79.264C279.886 76.768 279.598 76.48 277.102 76.48H274.318V54.112H277.102C279.598 54.112 279.886 53.728 279.886 51.232ZM330.342 53.152H324.774V75.52H330.342V53.152ZM319.206 50.368V47.584H335.91V50.368C335.91 52.864 336.198 53.152 338.694 53.152H341.574V75.52H338.694C336.198 75.52 335.91 75.808 335.91 78.304V81.088H324.774V92.32H321.99C319.494 92.32 319.206 92.608 319.206 95.104V97.888H307.974V95.104C307.974 92.608 308.262 92.32 310.758 92.32H313.542V53.152H316.326C318.822 53.152 319.206 52.864 319.206 50.368ZM369.717 52.192H358.581V63.424H369.717V52.192ZM352.917 49.408V46.624H375.285V49.408C375.285 51.904 375.573 52.192 378.069 52.192H380.949V68.992H358.581V74.56H375.285V80.128H352.917V77.344C352.917 74.848 352.629 74.56 350.133 74.56H347.349V52.192H350.133C352.629 52.192 352.917 51.904 352.917 49.408ZM386.724 52.192V49.408H397.956V52.192C397.956 54.688 398.244 54.976 400.74 54.976C403.236 54.976 403.524 54.688 403.524 52.192V49.408H414.66V52.192C414.66 54.688 414.948 54.976 417.444 54.976H420.324V66.208H417.444C414.948 66.208 414.66 65.92 414.66 63.424V60.64H403.524V83.008H392.292V54.976H389.508C387.012 54.976 386.724 54.688 386.724 52.192ZM487.691 59.68H476.555V76.48H487.691V59.68ZM487.691 37.312H476.555V54.112H487.691V37.312ZM459.755 28.864V26.08H487.691V28.864C487.691 31.36 487.979 31.744 490.475 31.744C492.971 31.744 493.355 32.032 493.355 34.528C493.355 37.024 493.643 37.312 496.139 37.312H498.923V54.112H496.139C493.643 54.112 493.355 54.4 493.355 56.896C493.355 59.392 493.643 59.68 496.139 59.68H498.923V76.48H496.139C493.643 76.48 493.355 76.768 493.355 79.264C493.355 81.76 492.971 82.048 490.475 82.048C487.979 82.048 487.691 82.336 487.691 84.832V87.616H459.755V84.832C459.755 82.336 460.043 82.048 462.539 82.048H465.323V31.744H462.539C460.043 31.744 459.755 31.36 459.755 28.864ZM504.661 29.824V27.04H515.893V29.824C515.893 32.32 516.181 32.608 518.677 32.608H521.461V77.344H524.245C526.741 77.344 527.029 77.632 527.029 80.128V83.008H515.893V80.128C515.893 77.632 515.509 77.344 513.013 77.344H510.229V32.608H507.445C504.949 32.608 504.661 32.32 504.661 29.824ZM549.586 54.112H544.018V76.48H549.586V54.112ZM538.354 51.232V48.448H555.154V51.232C555.154 53.728 555.442 54.112 557.938 54.112H560.722V76.48H557.938C555.442 76.48 555.154 76.768 555.154 79.264V82.048H538.354V79.264C538.354 76.768 538.066 76.48 535.57 76.48H532.786V54.112H535.57C538.066 54.112 538.354 53.728 538.354 51.232ZM583.243 71.776V54.976H577.674V71.776H583.243ZM572.011 52.192V49.408H594.379V52.192C594.379 54.688 594.667 54.976 597.163 54.976H600.043V94.144H597.163C594.667 94.144 594.379 94.432 594.379 96.928V99.712H572.011V96.928C572.011 94.432 571.723 94.144 569.227 94.144H566.443V83.008H569.227C571.723 83.008 572.011 83.296 572.011 85.792V88.576H588.811V77.344H572.011V74.56C572.011 72.064 571.723 71.776 569.227 71.776H566.443V54.976H569.227C571.723 54.976 572.011 54.688 572.011 52.192Z" fill="#461C20"/>
</svg>
