<svg width="353" height="51" viewBox="0 0 353 51" fill="none" xmlns="http://www.w3.org/2000/svg">
<rect x="2" y="2" width="349" height="47" fill="#F9E186" stroke="#461C20" stroke-width="4"/>
<path d="M337.628 39.8344L329.693 31.9008C331.993 29.1396 333.14 25.598 332.895 22.0127C332.65 18.4274 331.033 15.0746 328.379 12.6515C325.725 10.2285 322.239 8.92196 318.647 9.00361C315.054 9.08526 311.631 10.5489 309.09 13.0899C306.549 15.631 305.085 19.0539 305.004 22.6466C304.922 26.2393 306.229 29.7251 308.652 32.379C311.075 35.0329 314.427 36.6505 318.013 36.8953C321.598 37.1401 325.14 35.9932 327.901 33.6932L335.834 41.6284C335.952 41.7462 336.092 41.8397 336.246 41.9034C336.4 41.9672 336.565 42 336.731 42C336.898 42 337.063 41.9672 337.217 41.9034C337.371 41.8397 337.511 41.7462 337.628 41.6284C337.746 41.5107 337.84 41.3708 337.903 41.2169C337.967 41.063 338 40.898 338 40.7314C338 40.5648 337.967 40.3999 337.903 40.246C337.84 40.0921 337.746 39.9522 337.628 39.8344ZM307.571 22.9814C307.571 20.7246 308.24 18.5185 309.494 16.642C310.748 14.7655 312.53 13.303 314.615 12.4393C316.7 11.5757 318.994 11.3497 321.208 11.79C323.421 12.2303 325.454 13.317 327.05 14.9129C328.646 16.5087 329.733 18.5419 330.173 20.7553C330.613 22.9688 330.387 25.2631 329.524 27.3481C328.66 29.4332 327.197 31.2153 325.321 32.4691C323.444 33.7229 321.238 34.3922 318.981 34.3922C315.956 34.3888 313.056 33.1855 310.917 31.0463C308.777 28.9071 307.574 26.0067 307.571 22.9814Z" fill="#461C20"/>
</svg>
