<svg width="45" height="34" viewBox="0 0 45 34" fill="none" xmlns="http://www.w3.org/2000/svg">
<path d="M43.2692 0H1.73077C1.27174 0 0.831513 0.179107 0.506931 0.497919C0.182348 0.816731 0 1.24913 0 1.7V30.6C0 31.5017 0.364697 32.3665 1.01386 33.0042C1.66303 33.6418 2.54348 34 3.46154 34H41.5385C42.4565 34 43.337 33.6418 43.9861 33.0042C44.6353 32.3665 45 31.5017 45 30.6V1.7C45 1.24913 44.8177 0.816731 44.4931 0.497919C44.1685 0.179107 43.7283 0 43.2692 0ZM38.819 3.4L22.5 18.0944L6.18101 3.4H38.819ZM41.5385 30.6H3.46154V5.56538L21.3296 21.6537C21.6489 21.9417 22.0666 22.1014 22.5 22.1014C22.9335 22.1014 23.3511 21.9417 23.6704 21.6537L41.5385 5.56538V30.6Z" fill="black"/>
</svg>
