<svg width="688" height="116" viewBox="0 0 688 116" fill="none" xmlns="http://www.w3.org/2000/svg">
<rect x="4.5" y="4.5" width="679" height="107" fill="#FBC571" stroke="#461C20" stroke-width="9"/>
<path d="M282.88 28.864V26.08H316.48V28.864C316.48 31.36 316.768 31.744 319.264 31.744C321.76 31.744 322.048 32.032 322.048 34.528C322.048 37.024 321.76 37.312 319.264 37.312C316.768 37.312 316.48 37.024 316.48 34.528V31.744H299.68V48.448H310.816V54.112H299.68V87.616H288.448V54.112H285.664C283.168 54.112 282.88 53.728 282.88 51.232C282.88 48.736 283.168 48.448 285.664 48.448H288.448V31.744H285.664C283.168 31.744 282.88 31.36 282.88 28.864ZM350.154 36.352H344.586V47.584H350.154V36.352ZM344.586 28C344.586 25.504 344.874 25.216 347.37 25.216C349.866 25.216 350.154 25.504 350.154 28C350.154 30.496 350.442 30.784 352.938 30.784H355.722V47.584H361.386V64.288H366.954V86.656H355.722V64.288H352.938C350.442 64.288 350.154 64 350.154 61.504C350.154 59.008 349.866 58.72 347.37 58.72C344.874 58.72 344.586 59.008 344.586 61.504C344.586 64 344.298 64.288 341.802 64.288H339.018V86.656H327.786V64.288H333.354V47.584H339.018V30.784H341.802C344.298 30.784 344.586 30.496 344.586 28ZM395.061 74.56C395.061 72.064 395.349 71.776 397.845 71.776C400.341 71.776 400.629 72.064 400.629 74.56C400.629 77.056 400.341 77.344 397.845 77.344C395.349 77.344 395.061 77.056 395.061 74.56ZM406.293 38.272H389.493V41.056C389.493 43.552 389.205 43.84 386.709 43.84H383.924V77.344H386.709C389.205 77.344 389.493 77.632 389.493 80.128V83.008H400.629V80.128C400.629 77.632 400.917 77.344 403.413 77.344H406.293V38.272ZM383.924 29.824V27.04H400.629V29.824C400.629 32.32 400.917 32.608 403.413 32.608C405.909 32.608 406.293 32.896 406.293 35.392C406.293 37.888 406.581 38.272 409.077 38.272H411.861V77.344H409.077C406.581 77.344 406.293 77.632 406.293 80.128C406.293 82.624 406.581 83.008 409.077 83.008C411.573 83.008 411.861 83.296 411.861 85.792C411.861 88.288 411.573 88.576 409.077 88.576C406.581 88.576 406.293 88.288 406.293 85.792C406.293 83.296 405.909 83.008 403.413 83.008C400.917 83.008 400.629 83.296 400.629 85.792V88.576H383.924V85.792C383.924 83.296 383.541 83.008 381.045 83.008H378.261V71.776H372.693V43.84H378.261V32.608H381.045C383.541 32.608 383.924 32.32 383.924 29.824Z" fill="#461C20"/>
</svg>
