<svg width="41" height="29" viewBox="0 0 41 29" fill="none" xmlns="http://www.w3.org/2000/svg">
<path d="M41 14.4143C41 14.8324 40.82 15.2334 40.4996 15.5291C40.1793 15.8248 39.7447 15.9909 39.2917 15.9909H1.70833C1.25526 15.9909 0.820734 15.8248 0.50036 15.5291C0.179985 15.2334 0 14.8324 0 14.4143C0 13.9961 0.179985 13.5951 0.50036 13.2994C0.820734 13.0037 1.25526 12.8376 1.70833 12.8376H39.2917C39.7447 12.8376 40.1793 13.0037 40.4996 13.2994C40.82 13.5951 41 13.9961 41 14.4143ZM1.70833 3.37786H39.2917C39.7447 3.37786 40.1793 3.21176 40.4996 2.91608C40.82 2.62041 41 2.21938 41 1.80124C41 1.38309 40.82 0.982068 40.4996 0.686393C40.1793 0.390718 39.7447 0.224609 39.2917 0.224609H1.70833C1.25526 0.224609 0.820734 0.390718 0.50036 0.686393C0.179985 0.982068 0 1.38309 0 1.80124C0 2.21938 0.179985 2.62041 0.50036 2.91608C0.820734 3.21176 1.25526 3.37786 1.70833 3.37786ZM39.2917 25.4507H1.70833C1.25526 25.4507 0.820734 25.6168 0.50036 25.9124C0.179985 26.2081 0 26.6091 0 27.0273C0 27.4454 0.179985 27.8464 0.50036 28.1421C0.820734 28.4378 1.25526 28.6039 1.70833 28.6039H39.2917C39.7447 28.6039 40.1793 28.4378 40.4996 28.1421C40.82 27.8464 41 27.4454 41 27.0273C41 26.6091 40.82 26.2081 40.4996 25.9124C40.1793 25.6168 39.7447 25.4507 39.2917 25.4507Z" fill="#FDF9E7"/>
</svg>
