<svg width="688" height="116" viewBox="0 0 688 116" fill="none" xmlns="http://www.w3.org/2000/svg">
<rect x="4.5" y="4.5" width="679" height="107" fill="#FBC571" stroke="#461C20" stroke-width="9"/>
<path d="M253.88 27.04H265.112V29.824C265.112 32.32 265.4 32.608 267.896 32.608C270.392 32.608 270.68 32.896 270.68 35.392V38.272H281.816V35.392C281.816 32.896 282.104 32.608 284.6 32.608C287.096 32.608 287.48 32.32 287.48 29.824C287.48 27.328 287.768 27.04 290.264 27.04H293.048V88.576H287.48V49.408H284.6C282.104 49.408 281.816 49.696 281.816 52.192V54.976H270.68V52.192C270.68 49.696 270.392 49.408 267.896 49.408H265.112V88.576H253.88V27.04ZM321.154 52.192H310.018V63.424H321.154V52.192ZM304.354 49.408V46.624H326.722V49.408C326.722 51.904 327.01 52.192 329.506 52.192H332.386V68.992H310.018V74.56H326.722V80.128H304.354V77.344C304.354 74.848 304.066 74.56 301.57 74.56H298.786V52.192H301.57C304.066 52.192 304.354 51.904 304.354 49.408ZM354.961 74.56V52.192H349.393V74.56H354.961ZM366.097 27.04V24.256H377.329V27.04C377.329 29.536 377.041 29.824 374.545 29.824H371.761V74.56H374.545C377.041 74.56 377.329 74.848 377.329 77.344C377.329 79.84 377.041 80.128 374.545 80.128C372.049 80.128 371.761 79.84 371.761 77.344C371.761 74.848 371.377 74.56 368.881 74.56C366.385 74.56 366.097 74.848 366.097 77.344V80.128H343.729V77.344C343.729 74.848 343.441 74.56 340.945 74.56H338.161V52.192H340.945C343.441 52.192 343.729 51.904 343.729 49.408V46.624H360.529V29.824H363.313C365.809 29.824 366.097 29.536 366.097 27.04ZM388.636 56.896C388.636 54.4 388.924 54.112 391.42 54.112H394.299V76.48H391.42C388.924 76.48 388.636 76.768 388.636 79.264C388.636 81.76 388.348 82.048 385.852 82.048H383.068V59.68H385.852C388.348 59.68 388.636 59.392 388.636 56.896ZM383.068 40.096V37.312H394.299V48.448H391.42C388.924 48.448 388.636 48.16 388.636 45.664C388.636 43.168 388.348 42.88 385.852 42.88C383.355 42.88 383.068 42.592 383.068 40.096ZM416.836 77.344V54.976H411.268V77.344H416.836ZM405.604 52.192V49.408H427.972V60.64H433.636V77.344H436.42C438.916 77.344 439.204 77.632 439.204 80.128V83.008H427.972V80.128C427.972 77.632 427.684 77.344 425.188 77.344C422.692 77.344 422.404 77.632 422.404 80.128V83.008H405.604V80.128C405.604 77.632 405.316 77.344 402.82 77.344H400.036V54.976H402.82C405.316 54.976 405.604 54.688 405.604 52.192Z" fill="#461C20"/>
</svg>
