<svg width="33" height="33" viewBox="0 0 33 33" fill="none" xmlns="http://www.w3.org/2000/svg">
<path d="M32.6284 30.8344L24.6932 22.9008C26.9932 20.1396 28.1401 16.598 27.8953 13.0127C27.6505 9.42743 26.0329 6.07455 23.379 3.65154C20.7251 1.22854 17.2393 -0.0780411 13.6466 0.00360866C10.0539 0.0852584 6.63099 1.54885 4.08992 4.08992C1.54885 6.63099 0.0852584 10.0539 0.00360866 13.6466C-0.0780411 17.2393 1.22854 20.7251 3.65154 23.379C6.07455 26.0329 9.42743 27.6505 13.0127 27.8953C16.598 28.1401 20.1396 26.9932 22.9008 24.6932L30.8344 32.6284C30.9522 32.7462 31.0921 32.8397 31.246 32.9034C31.3999 32.9672 31.5648 33 31.7314 33C31.898 33 32.063 32.9672 32.2169 32.9034C32.3708 32.8397 32.5107 32.7462 32.6284 32.6284C32.7462 32.5107 32.8397 32.3708 32.9034 32.2169C32.9672 32.063 33 31.898 33 31.7314C33 31.5648 32.9672 31.3999 32.9034 31.246C32.8397 31.0921 32.7462 30.9522 32.6284 30.8344ZM2.57074 13.9814C2.57074 11.7246 3.23997 9.51848 4.49379 7.642C5.74762 5.76552 7.52973 4.30298 9.61476 3.43933C11.6998 2.57568 13.9941 2.34971 16.2076 2.79C18.421 3.23028 20.4542 4.31704 22.05 5.91286C23.6459 7.50868 24.7326 9.54187 25.1729 11.7553C25.6132 13.9688 25.3872 16.2631 24.5236 18.3481C23.6599 20.4332 22.1974 22.2153 20.3209 23.4691C18.4444 24.7229 16.2383 25.3922 13.9814 25.3922C10.9562 25.3888 8.05576 24.1855 5.91657 22.0463C3.77737 19.9071 2.5741 17.0067 2.57074 13.9814Z" fill="#FDF9E7"/>
</svg>
